<svg width="909" height="254" viewBox="0 0 909 254" fill="none" xmlns="http://www.w3.org/2000/svg">
<path d="M416.993 137.782C460.106 132.316 469.902 149.997 467.026 189.888C465.163 215.728 475.89 245.429 440.965 252.615C388.706 257.712 388.468 236.804 389.443 191.884C389.982 167.094 385.208 142.773 416.993 137.782Z" fill="#E0740F"/>
<path d="M421.839 160.243C431.52 159.164 441.006 158.41 441.335 171.276C441.778 188.639 442.334 206.574 440.955 223.857C440.713 226.887 437.093 229.373 434.762 230.781C429.099 231.518 423.108 231.851 418.465 228.32C413.383 220.844 415.787 178.202 416.093 167.191C416.185 163.875 419.25 161.943 421.839 160.243Z" fill="#231330"/>
<path d="M789.67 137.152C812.62 137.74 828.92 141.754 829.37 169.526C829.68 188.282 830.47 209.096 828.52 227.657C826.35 248.309 810.6 252.622 792.65 253.062C753.71 253.064 751.04 236.963 752.01 201.735C752.99 166.132 743.832 139.714 789.67 137.152Z" fill="#E0740F"/>
<path d="M788.09 159.6C791.48 159.456 795.86 159.369 798.92 160.968C801.1 162.108 802.36 163.528 803.08 165.865C805.33 173.177 805.84 221.176 802.38 226.853C800.75 229.526 797.72 230.342 794.91 231.113C791.33 231.155 787.13 231.536 783.79 230.047C781.79 229.154 780.01 227.74 779.29 225.604C777.13 219.171 776.69 168.75 779.76 163.89C781.63 160.927 784.93 160.293 788.09 159.6Z" fill="#231330"/>
<path d="M647.061 1.91016L673.255 1.87515C682.493 20.7912 694.792 48.0532 704.789 65.8582L704.774 1.93616L729.132 1.90616C728.379 39.4402 729.044 79.0992 729.059 116.798L703.943 116.837C693.121 95.2332 683.082 73.0542 672.03 51.5582L672.036 116.821L647.022 116.813L647.061 1.91016Z" fill="#E0740F"/>
<path d="M662.98 138.875C667.203 138.785 675.252 138.92 678.877 138.723C726.408 136.142 741.745 141.044 735.524 193.644C734.621 201.284 728.361 206.656 722.051 210.534C728.077 223.517 733.997 238.181 739.664 251.439L714.579 251.428C711.663 249.692 699.977 219.3 697.713 213.781L688.528 213.616L688.511 251.468L662.944 251.386L662.98 138.875Z" fill="#E0740F"/>
<path d="M688.391 160.009C704.85 159.865 712.946 158.101 711.688 178.248C711.345 183.736 712.444 184.962 708.78 189.787C703.227 192.728 694.9 192.031 688.446 192.064L688.391 160.009Z" fill="#231330"/>
<path d="M540.553 138.877L564.293 138.793L564.292 251.452L540.119 251.463C529.669 231.794 518.787 208.057 509.07 187.849L509.132 251.453L485.002 251.414L485.007 138.791L510.214 138.796L540.478 201.914C540.862 181.373 540.54 159.504 540.553 138.877Z" fill="#E0740F"/>
<path d="M476.225 1.93114C489.075 1.85314 502.454 1.79217 515.182 1.75317C541.808 1.67117 551.441 6.92414 551.575 34.0171C551.767 72.9461 549.448 78.0361 511.262 77.8281L501.856 78.0561C501.745 90.9351 501.866 103.906 501.914 116.793L476.196 116.828C476.617 78.8212 476.286 39.9531 476.225 1.93114Z" fill="#E0740F"/>
<path d="M501.768 23.3491C507.119 23.2541 518.652 22.2402 522.721 25.3162C528.621 29.7762 527.756 49.8911 523.819 55.2151C518.137 57.7981 508.203 57.1322 501.78 57.1182L501.768 23.3491Z" fill="#231330"/>
<path d="M773.42 0.563177C784.36 -0.924823 802.06 0.186171 810.39 8.17017C818.36 15.8022 818.66 26.1572 818.86 36.4002L794.4 36.3482C794 30.9462 794.13 27.9992 789.67 23.7672C782.54 16.9982 767.24 22.0692 769.4 32.6662C771.52 40.6042 781.66 44.2702 787.77 48.2052C798.58 55.3182 819.34 62.7902 820.58 78.0642C822.61 102.981 815.06 114.264 791.73 117.991C760.35 118.897 744.2 117.003 743.104 81.9632L768.77 81.8662C770.32 111.205 809.75 92.9492 789.66 77.5992C781.8 71.5992 769.66 65.9652 761.12 60.2602C753.17 54.9442 746.13 50.6722 745.24 40.1472C742.99 16.0552 747.83 3.32618 773.42 0.563177Z" fill="#E0740F"/>
<path d="M436.22 1.87016L464.15 1.90318C457.517 17.2642 443.488 42.9272 435.432 58.4252C438.636 64.6612 464.54 113.864 464.298 116.543L461.937 116.856C453.368 116.776 444.648 116.89 436.065 116.919C430.192 105.845 425.269 91.4202 419.123 80.3512L402.293 116.808L373.479 116.83C382.086 98.4432 394.629 75.7842 404.116 57.2962C394.989 39.3892 384.766 20.1212 376.347 2.01716C384.859 1.55016 396.45 1.88118 405.196 1.86418C409.383 11.8042 415.388 26.7072 420.309 36.0402C425.471 24.6482 430.585 13.0212 436.22 1.87016Z" fill="#E0740F"/>
<path d="M567.677 1.94015C588.543 1.60715 610.405 1.89716 631.342 1.89916L631.282 24.0012L593.192 24.1312C593.29 31.9152 593.202 39.8752 593.203 47.6752L625.536 47.6102L625.513 69.2702L593.173 69.2662L593.271 86.6301L593.242 94.8572L632.079 94.8182L632.074 116.787L567.709 116.847L567.677 1.94015Z" fill="#E0740F"/>
<path d="M325.69 137.71C359.521 135.013 374.241 141.032 374.705 177.116L349.227 178.14C349.359 173.318 349.818 168.351 347.523 163.922C346.163 161.298 344.272 159.379 341.339 158.629C337.946 157.762 332.991 158.686 329.959 160.519C327.774 161.84 326.584 163.916 325.993 166.347C324.228 173.607 324.06 223.176 327.479 227.953C329.232 230.401 332.448 231.489 335.32 231.831C338.529 232.214 342.959 232.001 345.506 229.828C349.646 226.298 348.991 219.104 349.542 214.177C357.348 214.824 366.131 214.825 374.039 214.987C373.828 231.158 371.583 249.105 352.933 251.922C310.132 258.011 296.699 244.797 299.796 201.744C301.584 176.876 290.901 144.039 325.69 137.71Z" fill="#E0740F"/>
<path d="M834.99 1.91016L898.14 1.89417L898.15 24.0941C885.43 23.9831 872.66 24.1132 859.94 24.1772L859.95 47.6591L892.03 47.5941L891.9 69.2762L859.94 69.2552L859.99 83.3652L859.96 94.8242L899.14 94.7792L899.11 116.742L835.01 116.841L834.99 1.91016Z" fill="#E0740F"/>
<path d="M301.211 1.91313C321.974 1.68013 343.283 1.90414 364.082 1.91014L364.132 24.0431L325.996 24.1341L325.97 47.6282L358.37 47.6521L358.382 69.2652L325.978 69.2561L325.986 86.1781L326 94.8262L365.935 94.7991L365.92 116.777L301.141 116.831L301.211 1.91313Z" fill="#E0740F"/>
<path d="M577.234 138.831L650.749 138.823L650.736 161L626.174 160.973L626.185 227.532L626.188 251.436L601.327 251.428L601.353 161.013L577.223 160.962L577.234 138.831Z" fill="#E0740F"/>
<path d="M847.44 138.908C855.25 138.631 864.11 138.778 872 138.721L871.99 229.008L908.75 228.999V251.443L847.44 251.419V138.908Z" fill="#E0740F"/>
<path d="M177.753 85.816C198.241 67.706 225.521 73.539 239.032 97.278C250.131 116.78 257.523 142.671 262.887 164.028C267.737 183.343 276.837 222.48 256.494 234.929C231.866 250 205.694 205.836 196.488 189.275C193.941 195.224 192.323 197.672 187.794 202.267C166.896 217.898 144.588 204.182 142.722 179.021L127.604 179.041C123.991 213.194 89.23 220.075 72.663 188.888C59.413 210.403 22.077 267.097 2.41101 221.146C-8.00199 196.815 18.173 123.943 29.039 99.24C34.42 87.007 46.013 79.254 58.115 75.717L59.329 75.611C72.96 74.525 79.35 76.949 89.608 85.702C118.991 85.827 148.359 85.458 177.753 85.816Z" fill="#E0740F"/>
<path d="M60.157 96.685C77.661 95.209 78.043 100.669 78.125 116.106C84.02 116.208 88.656 115.669 93.642 119.614C99.586 124.317 100.448 132.305 95.185 137.976C90.304 143.234 84.772 142.772 78.138 143.086C78.177 151.397 79.459 158.528 71.391 163.274C53.176 164.731 53.105 158.902 53.045 142.991C50.804 142.932 46.416 142.976 44.397 142.535C34.639 140.4 29.751 128.375 36.956 120.758C41.979 115.449 46.776 116.111 53.123 116.102C52.959 107.328 51.925 101.776 60.157 96.685Z" fill="#231330"/>
<path d="M62.212 101.901C75.981 101.291 69.872 108.399 72.197 116.911C74.423 125.064 83.972 120.771 89.265 123.371C91.109 125.124 91.208 125.744 91.479 128.255C92.924 141.655 79.435 134.262 74.234 138.85C69.207 143.284 74.988 151.143 69.358 157.457C66.293 157.645 65.052 157.873 62.055 156.894C56.851 152.175 60.736 149.456 59.288 143.009C57.011 132.866 47.575 139.636 41.765 135.267C40.671 133.699 40.524 133.107 40.357 131.306C39.398 120.917 44.738 122.447 52.373 121.936C64.337 121.135 55.537 109.417 62.212 101.901Z" fill="#47246D"/>
<path d="M94.308 156.673C98.645 156.346 102.022 155.876 106.268 157.473C118.041 161.902 123.166 176.116 118.545 187.493C115.8 194.251 111.675 197.522 105.065 200.334C77.119 204.526 69.389 167.156 94.308 156.673Z" fill="#231330"/>
<path d="M99.203 162.698C115.808 165.327 118.076 188.578 100.369 194.358C82.835 191.62 82.067 167.138 99.203 162.698Z" fill="#47246D"/>
<path d="M164.824 156.677C183.699 155.395 194.291 167.36 189.016 186.828C187.237 193.393 181.316 197.735 175.237 200.467C146.399 203.253 140.928 167.566 164.824 156.677Z" fill="#231330"/>
<path d="M169.463 162.671C186.331 165.047 188.517 187.806 171.155 194.418C153.957 192.008 152.281 168.337 169.463 162.671Z" fill="#47246D"/>
<path d="M201.217 139.164C206.358 137.508 211.992 138.743 215.969 142.399C219.946 146.054 221.652 151.565 220.436 156.828C219.22 162.092 215.27 166.296 210.093 167.836C202.213 170.179 193.915 165.744 191.483 157.889C189.051 150.034 193.392 141.684 201.217 139.164Z" fill="#231330"/>
<path d="M204.592 144.359C209.399 143.761 213.834 147.026 214.693 151.794C215.551 156.562 212.533 161.169 207.819 162.286C204.534 163.064 201.088 161.963 198.862 159.424C196.636 156.885 195.994 153.323 197.195 150.167C198.396 147.01 201.242 144.776 204.592 144.359Z" fill="#47246D"/>
<path d="M223.656 114.911C228.738 113.3 234.294 114.568 238.174 118.226C242.053 121.884 243.647 127.357 242.339 132.526C241.031 137.696 237.026 141.751 231.874 143.122C224.162 145.176 216.221 140.695 213.989 133.031C211.756 125.367 216.048 117.322 223.656 114.911Z" fill="#231330"/>
<path d="M226.628 120.353C231.255 119.552 235.692 122.537 236.693 127.126C237.694 131.715 234.903 136.278 230.364 137.477C227.247 138.3 223.93 137.346 221.725 134.993C219.521 132.64 218.786 129.267 219.809 126.21C220.833 123.152 223.452 120.903 226.628 120.353Z" fill="#47246D"/>
<path d="M178.98 116.39C186.402 114.012 194.346 118.097 196.732 125.517C199.119 132.937 195.046 140.888 187.63 143.285C180.202 145.686 172.235 141.603 169.844 134.169C167.453 126.735 171.545 118.772 178.98 116.39Z" fill="#231330"/>
<path d="M181.958 121.697C186.261 121 190.352 123.804 191.257 128.069C192.161 132.334 189.56 136.558 185.345 137.669C182.43 138.437 179.329 137.537 177.277 135.329C175.226 133.121 174.556 129.962 175.535 127.11C176.514 124.259 178.982 122.178 181.958 121.697Z" fill="#47246D"/>
<path d="M201.804 93.27C209.214 91.377 216.76 95.832 218.684 103.236C220.608 110.639 216.186 118.206 208.793 120.162C201.354 122.13 193.734 117.674 191.799 110.226C189.863 102.778 194.349 95.175 201.804 93.27Z" fill="#231330"/>
<path d="M202.113 99.309C204.798 98.197 207.875 98.633 210.146 100.446C212.417 102.259 213.524 105.163 213.036 108.029C212.548 110.894 210.542 113.268 207.799 114.226C203.719 115.652 199.245 113.571 197.706 109.532C196.166 105.493 198.12 100.962 202.113 99.309Z" fill="#47246D"/>
<path d="M144.297 129.773C148.437 129.626 157.604 129.718 156.711 135.819C155.11 137.868 153.928 138.082 151.506 139.063C147.445 139.191 137.541 138.932 138.942 132.71C140.852 130.7 141.634 130.651 144.297 129.773Z" fill="#231330"/>
<path d="M116.22 129.803C120.313 129.582 130.105 128.746 129.904 134.704C128.559 137.016 127.999 137.155 125.655 138.659C121.207 138.959 113.069 139.365 112.032 133.86C113.184 131.491 113.94 131.214 116.22 129.803Z" fill="#231330"/>
<path d="M62.011 52.545C77.327 50.967 85.825 54.466 98.052 62.888L171.269 62.805C199.477 41.469 242.182 53.911 246.256 91.095L244.886 89.22C234.323 74.939 224.419 68.534 206.828 65.872C193.787 65.718 185.018 68.708 174.853 76.636L93.29 76.83C67.081 55.522 40.258 66.946 22.458 91.954C25.82 68.73 39.137 56.409 62.011 52.545Z" fill="#47246D"/>
<path d="M166.748 14.247L175.168 14L175.235 25.489C155.521 27.436 142.41 34.743 137.251 54.687L126.002 54.658C129.608 31.692 143.681 17.846 166.748 14.247Z" fill="#47246D"/>
</svg>
